<svg width="171" height="24" viewBox="0 0 171 24" fill="none" xmlns="http://www.w3.org/2000/svg">
<g clip-path="url(#clip0_107_390)">
<path d="M7.45022 22.6748L7.75905 21.1307C7.35463 21.1307 7.02376 21.0205 6.76641 20.7998C6.50905 20.5866 6.30316 20.3073 6.14876 19.9617C5.99434 19.6161 5.88772 19.2299 5.8289 18.8036C5.77744 18.3771 5.7517 17.9543 5.7517 17.5351V15.7042C5.74434 14.8292 5.53111 14.0609 5.11199 13.3991C4.70023 12.73 4.04949 12.2226 3.15978 11.877C4.04214 11.5241 4.69288 11.0131 5.11199 10.344C5.53847 9.66749 5.7517 8.89175 5.7517 8.01675V6.18586C5.7517 5.76675 5.76273 5.34396 5.78478 4.91749C5.8142 4.49101 5.89508 4.10498 6.02743 3.75939C6.15978 3.41381 6.36199 3.13439 6.63405 2.92116C6.90611 2.70057 7.28111 2.59028 7.75905 2.59028L7.45022 1.05719C6.72229 1.06454 6.09729 1.2116 5.57523 1.49837C5.06051 1.77778 4.64507 2.14175 4.32889 2.59028C3.96126 3.08293 3.69287 3.65278 3.52375 4.29984C3.35464 4.9469 3.27007 5.57557 3.27007 6.18586V8.01675C3.27007 9.03881 3.0311 9.7741 2.55316 10.2226C2.08258 10.6712 1.35831 10.8954 0.380371 10.8954V12.8476C1.35831 12.8476 2.08258 13.0719 2.55316 13.5204C3.0311 13.969 3.27007 14.6969 3.27007 15.7042V17.5351C3.27007 18.1161 3.35097 18.7079 3.51273 19.3108C3.67449 19.9211 3.92817 20.4726 4.27375 20.9653C4.612 21.4653 5.04582 21.8697 5.57523 22.1785C6.10464 22.4946 6.72964 22.6601 7.45022 22.6748ZM89.6083 11.8329V9.64911H82.8141V4.80719H90.5789V2.61233H80.1451V18.6712H82.8141V11.8329H89.6083ZM99.1487 18.8918C100.311 18.8918 101.3 18.6638 102.116 18.208C102.939 17.7521 103.549 17.2374 103.947 16.6638L102.535 15.2962C102.167 15.7667 101.7 16.1307 101.134 16.3881C100.568 16.6381 99.9576 16.763 99.3031 16.763C98.8253 16.763 98.3841 16.6821 97.9796 16.5205C97.5826 16.3587 97.237 16.1307 96.9428 15.8366C96.6487 15.5572 96.4172 15.241 96.2481 14.8881C96.0789 14.5351 95.9539 14.0976 95.873 13.5756V13.5204H104.145V12.3844C104.145 11.5315 104.031 10.7447 103.803 10.0241C103.575 9.30352 103.237 8.68219 102.789 8.16013C102.34 7.64543 101.785 7.24469 101.123 6.95793C100.461 6.6638 99.7003 6.51675 98.8399 6.51675C98.0678 6.51675 97.3399 6.6638 96.6561 6.95793C95.9797 7.24469 95.3841 7.65646 94.8693 8.19322C94.3546 8.72999 93.9503 9.37704 93.6561 10.1344C93.362 10.8918 93.2149 11.7373 93.2149 12.6712V13.1234C93.2149 13.9395 93.3547 14.7006 93.634 15.4065C93.9208 16.105 94.3253 16.7116 94.8473 17.2264C95.3694 17.7484 95.9944 18.1564 96.7223 18.4506C97.4575 18.7447 98.2663 18.8918 99.1487 18.8918ZM98.8289 8.65645C99.2701 8.65645 99.6561 8.73366 99.987 8.88808C100.325 9.03513 100.605 9.23367 100.825 9.48366C101.053 9.74101 101.23 10.0425 101.355 10.3881C101.48 10.7263 101.542 11.0682 101.542 11.4138V11.5903H95.9282C96.0091 11.1344 96.134 10.7263 96.3031 10.366C96.4723 10.0057 96.6819 9.69689 96.9318 9.43954C97.1818 9.18955 97.4649 8.99837 97.7811 8.86601C98.1047 8.72631 98.454 8.65645 98.8289 8.65645ZM107.652 1.72998V3.92484H111.425V16.4873H107.652V18.6712H117.7V16.4873H114.083V1.72998H107.652ZM120.733 23.2594H123.369V17.5903C123.509 17.7448 123.66 17.8881 123.822 18.0205C123.983 18.1528 124.152 18.2704 124.329 18.3734C124.63 18.5425 124.958 18.6712 125.311 18.7594C125.671 18.8476 126.064 18.8918 126.491 18.8918C127.241 18.8918 127.906 18.7374 128.487 18.4285C129.068 18.1197 129.557 17.6932 129.954 17.1491C130.351 16.6124 130.649 15.9726 130.847 15.23C131.053 14.4874 131.156 13.6859 131.156 12.8256V12.594C131.156 11.6969 131.053 10.877 130.847 10.1344C130.641 9.3844 130.344 8.74102 129.954 8.20425C129.557 7.66748 129.064 7.25204 128.476 6.95793C127.895 6.6638 127.222 6.51675 126.458 6.51675C126.068 6.51675 125.7 6.56087 125.355 6.64911C125.009 6.72999 124.693 6.84763 124.406 7.00205C124.185 7.11969 123.98 7.2594 123.789 7.42116C123.597 7.58293 123.421 7.76307 123.259 7.96161L123.16 6.73734H120.733V23.2594ZM128.52 12.594V12.8256C128.52 13.355 128.469 13.8587 128.366 14.3366C128.263 14.8072 128.097 15.2263 127.869 15.5939C127.649 15.9542 127.362 16.2409 127.009 16.4543C126.663 16.6601 126.244 16.763 125.752 16.763C125.45 16.763 125.174 16.73 124.925 16.6638C124.675 16.5902 124.45 16.4946 124.252 16.377C124.061 16.2521 123.891 16.105 123.744 15.9359C123.597 15.7667 123.472 15.5793 123.369 15.3734V10.0682C123.487 9.84763 123.623 9.64911 123.777 9.47264C123.939 9.29616 124.127 9.1491 124.34 9.03146C124.524 8.92116 124.733 8.83661 124.969 8.77778C125.204 8.71895 125.458 8.68954 125.73 8.68954C126.222 8.68954 126.645 8.79249 126.998 8.99837C127.351 9.20424 127.641 9.48366 127.869 9.8366C128.09 10.1895 128.252 10.605 128.355 11.0829C128.465 11.5535 128.52 12.0572 128.52 12.594ZM142.076 15.4395C142.076 15.6308 142.031 15.8073 141.943 15.9689C141.863 16.1233 141.737 16.2668 141.568 16.3991C141.361 16.5609 141.086 16.6896 140.741 16.7852C140.402 16.8808 140.005 16.9285 139.549 16.9285C139.211 16.9285 138.877 16.8954 138.546 16.8292C138.215 16.7557 137.921 16.6381 137.663 16.4763C137.399 16.3218 137.178 16.1197 137.002 15.8697C136.833 15.6123 136.737 15.2999 136.715 14.9322H134.156C134.156 15.4248 134.274 15.9102 134.509 16.3881C134.744 16.8661 135.09 17.2888 135.546 17.6565C135.994 18.0315 136.549 18.3329 137.211 18.5609C137.88 18.7888 138.645 18.9028 139.505 18.9028C140.277 18.9028 140.98 18.8146 141.611 18.6381C142.244 18.4617 142.789 18.2153 143.245 17.8991C143.692 17.583 144.038 17.2042 144.281 16.763C144.531 16.3218 144.656 15.8366 144.656 15.3072C144.656 14.7631 144.538 14.2924 144.304 13.8954C144.068 13.4984 143.737 13.1528 143.311 12.8587C142.885 12.5793 142.369 12.344 141.767 12.1528C141.164 11.9616 140.498 11.7998 139.77 11.6675C139.248 11.5793 138.814 11.48 138.469 11.3697C138.13 11.2594 137.866 11.1381 137.674 11.0057C137.469 10.8807 137.325 10.7373 137.244 10.5756C137.163 10.4065 137.123 10.219 137.123 10.0131C137.123 9.81455 137.171 9.62704 137.266 9.45057C137.362 9.26674 137.505 9.10867 137.697 8.97632C137.888 8.82925 138.13 8.71528 138.425 8.6344C138.726 8.54616 139.075 8.50205 139.472 8.50205C139.906 8.50205 140.285 8.56086 140.608 8.67852C140.932 8.7888 141.196 8.93954 141.402 9.13072C141.579 9.29248 141.712 9.47631 141.799 9.6822C141.895 9.88072 141.943 10.0903 141.943 10.3109H144.579C144.579 9.7741 144.462 9.2741 144.226 8.81087C143.99 8.34763 143.656 7.9469 143.222 7.60867C142.782 7.27042 142.244 7.00572 141.611 6.81455C140.98 6.61601 140.266 6.51675 139.472 6.51675C138.73 6.51675 138.053 6.61234 137.443 6.80351C136.84 6.99469 136.325 7.25573 135.899 7.5866C135.465 7.91749 135.13 8.30351 134.895 8.74469C134.667 9.17851 134.553 9.63808 134.553 10.1234C134.553 10.6307 134.667 11.0756 134.895 11.4579C135.123 11.8403 135.439 12.1712 135.844 12.4506C136.255 12.7447 136.744 12.9947 137.311 13.2006C137.884 13.4065 138.516 13.5792 139.208 13.719C139.759 13.8219 140.219 13.9322 140.586 14.0498C140.954 14.1675 141.251 14.2924 141.48 14.4249C141.693 14.572 141.844 14.7263 141.932 14.8881C142.028 15.0498 142.076 15.2337 142.076 15.4395Z" fill="black"/>
<path d="M29.8509 13.4763L33.6561 18.6712H36.9208L31.6046 11.7116L36.2481 6.73734H33.0716L29.509 10.4873L28.4171 11.7006V1.72998H25.7701V18.6712H28.4171V14.833L29.8509 13.4763ZM46.9355 18.6712H49.6266V18.4837C49.4797 18.1748 49.3656 17.8072 49.2847 17.3807C49.2113 16.9468 49.1745 16.4616 49.1745 15.9248V10.6197C49.1745 9.94322 49.0495 9.34764 48.7995 8.83292C48.5495 8.31086 48.2039 7.88071 47.7627 7.54248C47.3215 7.20425 46.7958 6.95057 46.1855 6.78146C45.5825 6.60499 44.9318 6.51675 44.2333 6.51675C43.4538 6.51675 42.759 6.61968 42.1487 6.82558C41.5458 7.0241 41.0385 7.29616 40.6266 7.64175C40.2002 7.97999 39.8767 8.36969 39.6561 8.81087C39.4355 9.25205 39.3215 9.7116 39.3141 10.1895H41.9612C41.9612 9.9616 42.0017 9.74837 42.0826 9.54984C42.1708 9.34395 42.3031 9.17117 42.4796 9.03146C42.6561 8.87704 42.8767 8.75573 43.1414 8.66749C43.4135 8.57926 43.7296 8.53514 44.0898 8.53514C44.487 8.53514 44.8362 8.5866 45.1377 8.68954C45.4466 8.78513 45.7076 8.92484 45.9208 9.10867C46.1193 9.29248 46.27 9.5094 46.373 9.75939C46.4834 10.0094 46.5384 10.2888 46.5384 10.5976V11.4028H44.6193C43.7591 11.4028 42.987 11.4837 42.3031 11.6454C41.6267 11.8072 41.0568 12.0425 40.5936 12.3513C40.0936 12.6822 39.7113 13.1013 39.4466 13.6087C39.1892 14.1087 39.0604 14.6859 39.0604 15.3402C39.0604 15.8476 39.1598 16.3218 39.3583 16.763C39.5642 17.1968 39.8509 17.5683 40.2186 17.877C40.5789 18.1933 41.0128 18.4432 41.52 18.6271C42.0347 18.8036 42.601 18.8918 43.2186 18.8918C43.601 18.8918 43.9576 18.855 44.2885 18.7814C44.6193 18.7079 44.9282 18.6049 45.2149 18.4727C45.5016 18.3476 45.759 18.2006 45.987 18.0315C46.2223 17.855 46.4318 17.6712 46.6156 17.48C46.6525 17.7079 46.6929 17.9286 46.7369 18.1417C46.7884 18.3476 46.8546 18.524 46.9355 18.6712ZM43.7259 16.7742C43.3878 16.7742 43.0936 16.7337 42.8435 16.6528C42.5937 16.5645 42.384 16.4469 42.2149 16.2998C42.0458 16.1527 41.9171 15.9762 41.8289 15.7704C41.7407 15.5572 41.6965 15.3292 41.6965 15.0865C41.6965 14.7925 41.748 14.5278 41.8509 14.2924C41.9612 14.0572 42.1266 13.855 42.3473 13.6859C42.5973 13.4873 42.9318 13.3366 43.3509 13.2337C43.7701 13.1234 44.2663 13.0682 44.8399 13.0682H46.5384V15.2742C46.4428 15.4653 46.3069 15.6491 46.1304 15.8256C45.9539 16.0021 45.7443 16.1602 45.5016 16.2998C45.2591 16.4396 44.987 16.5535 44.6855 16.6417C44.3914 16.73 44.0715 16.7742 43.7259 16.7742ZM53.487 6.73734V8.9322H57.1598V16.4873H53.487V18.6712H63.3251V16.4873H59.8179V6.73734H53.487ZM56.9171 3.64911C56.9171 3.92851 56.9834 4.17483 57.1156 4.38808C57.2554 4.59396 57.4576 4.73734 57.7223 4.81822C57.9796 4.8991 58.215 4.91749 58.4282 4.87337C58.6413 4.82926 58.8251 4.73734 58.9796 4.59763C59.2885 4.51675 59.5237 4.35866 59.6855 4.12337C59.8473 3.88072 59.9025 3.59763 59.8509 3.2741C59.8142 2.95792 59.6708 2.70057 59.4208 2.50205C59.1781 2.29615 58.8583 2.19322 58.4612 2.19322C58.226 2.19322 58.0127 2.22999 57.8215 2.30351C57.6377 2.36969 57.4796 2.46528 57.3473 2.59028C57.2075 2.72263 57.101 2.88072 57.0274 3.06455C56.9538 3.24102 56.9171 3.43587 56.9171 3.64911ZM65.9612 12.594V12.8256C65.9612 13.7006 66.0863 14.5057 66.3363 15.241C66.5862 15.9762 66.9503 16.616 67.4282 17.1601C67.8987 17.7042 68.4796 18.1307 69.1708 18.4395C69.862 18.7484 70.645 18.9028 71.52 18.9028C72.3877 18.9028 73.1634 18.7484 73.8473 18.4395C74.5385 18.1307 75.1193 17.7042 75.5898 17.1601C76.0605 16.616 76.4208 15.9762 76.6708 15.241C76.9209 14.5057 77.0458 13.7006 77.0458 12.8256V12.594C77.0458 11.7263 76.9209 10.9248 76.6708 10.1895C76.4208 9.4469 76.0605 8.80351 75.5898 8.25939C75.112 7.71528 74.5274 7.2888 73.8363 6.97998C73.1524 6.67116 72.373 6.51675 71.498 6.51675C70.623 6.51675 69.8435 6.67116 69.1598 6.97998C68.476 7.2888 67.8987 7.71528 67.4282 8.25939C66.9503 8.80351 66.5862 9.4469 66.3363 10.1895C66.0863 10.9248 65.9612 11.7263 65.9612 12.594ZM68.5972 12.8256V12.594C68.5972 12.0719 68.6524 11.5719 68.7627 11.094C68.8803 10.616 69.0604 10.1969 69.3031 9.8366C69.5385 9.47631 69.8362 9.18955 70.1965 8.97631C70.5642 8.76307 70.9979 8.65645 71.498 8.65645C72.0054 8.65645 72.4392 8.76307 72.7995 8.97631C73.1671 9.18955 73.4722 9.47631 73.7149 9.8366C73.9429 10.1969 74.1157 10.616 74.2333 11.094C74.3509 11.5719 74.4098 12.0719 74.4098 12.594V12.8256C74.4098 13.3623 74.3509 13.8697 74.2333 14.3476C74.123 14.8255 73.9502 15.2447 73.7149 15.6049C73.4797 15.9652 73.1781 16.2521 72.8105 16.4653C72.4429 16.6711 72.0127 16.7742 71.52 16.7742C71.0128 16.7742 70.5753 16.6711 70.2075 16.4653C69.8399 16.2521 69.5385 15.9652 69.3031 15.6049C69.0604 15.2447 68.8803 14.8255 68.7627 14.3476C68.6524 13.8697 68.5972 13.3623 68.5972 12.8256ZM163.317 21.1307L163.638 22.6748C164.358 22.6674 164.983 22.5056 165.512 22.1896C166.042 21.8733 166.475 21.4653 166.814 20.9653C167.144 20.48 167.394 19.9321 167.564 19.3218C167.733 18.7115 167.818 18.116 167.818 17.5351V15.7042C167.818 15.2925 167.859 14.9286 167.939 14.6123C168.02 14.2888 168.141 14.0168 168.304 13.7962C168.531 13.4653 168.844 13.2263 169.241 13.0793C169.638 12.9248 170.126 12.8476 170.708 12.8476V10.8954C170.135 10.8954 169.645 10.8219 169.241 10.6748C168.836 10.5204 168.524 10.2851 168.304 9.96895C168.134 9.74101 168.008 9.46528 167.928 9.14174C167.855 8.81822 167.818 8.44322 167.818 8.01675V6.18586C167.818 5.60498 167.74 5.0094 167.586 4.3991C167.44 3.78146 167.192 3.22631 166.847 2.73366C166.516 2.23366 166.086 1.83293 165.556 1.53146C165.035 1.22263 164.394 1.06454 163.638 1.05719L163.328 2.59028C163.807 2.59028 164.181 2.70057 164.454 2.92116C164.726 3.13439 164.928 3.41381 165.061 3.75939C165.185 4.10498 165.263 4.49101 165.292 4.91749C165.329 5.34396 165.347 5.76675 165.347 6.18586V8.01675C165.347 8.55352 165.421 9.05719 165.568 9.52778C165.723 9.99102 165.957 10.4065 166.273 10.7741C166.472 11.002 166.7 11.2116 166.958 11.4028C167.222 11.5866 167.516 11.7447 167.84 11.877C167.472 12.0315 167.144 12.219 166.858 12.4395C166.578 12.6528 166.34 12.8954 166.141 13.1675C165.87 13.5131 165.668 13.9028 165.535 14.3366C165.409 14.7631 165.347 15.219 165.347 15.7042V17.5351C165.347 17.9543 165.315 18.3771 165.248 18.8036C165.189 19.2299 165.082 19.616 164.928 19.9616C164.774 20.3072 164.564 20.5866 164.3 20.7998C164.041 21.0205 163.715 21.1307 163.317 21.1307Z" fill="#FFC700"/>
</g>
<defs>
<clipPath id="clip0_107_390">
<rect width="170.824" height="24" fill="white"/>
</clipPath>
</defs>
</svg>
